HIERARCHY
ROOT Hips
{
 OFFSET 0.000000 0.000000 0.000000
 CHANNELS 6 Xposition Yposition Zposition Yrotation Xrotation Zrotation
 JOINT Chest
 {
  OFFSET 0.000000 12.953391 -0.028419
  CHANNELS 3 Yrotation Xrotation Zrotation
  JOINT Chest2
  {
   OFFSET 0.000000 10.280254 0.051622
   CHANNELS 3 Yrotation Xrotation Zrotation
   JOINT Chest3
   {
    OFFSET 0.000000 9.287180 0.000000
    CHANNELS 3 Yrotation Xrotation Zrotation
    JOINT Chest4
    {
     OFFSET 0.000000 9.287180 0.000000
     CHANNELS 3 Yrotation Xrotation Zrotation
     JOINT Neck
     {
      OFFSET 0.000000 13.296264 0.000000
      CHANNELS 3 Yrotation Xrotation Zrotation
      JOINT Head
      {
       OFFSET 0.000000 8.959264 0.099003
       CHANNELS 3 Yrotation Xrotation Zrotation
       End Site
       {
        OFFSET 0.000000 17.121337 0.039303
       }
      }
     }
     JOINT RightCollar
     {
      OFFSET -3.193511 7.451388 0.000000
      CHANNELS 3 Yrotation Xrotation Zrotation
      JOINT RightShoulder
      {
       OFFSET -15.792092 0.000000 0.000000
       CHANNELS 3 Yrotation Xrotation Zrotation
       JOINT RightElbow
       {
        OFFSET -31.151839 0.000000 0.000000
        CHANNELS 3 Yrotation Xrotation Zrotation
        JOINT RightWrist
        {
         OFFSET -25.536298 0.000000 0.002321
         CHANNELS 3 Yrotation Xrotation Zrotation
         End Site
         {
          OFFSET -19.133213 0.000000 0.000000
         }
        }
       }
      }
     }
     JOINT LeftCollar
     {
      OFFSET 3.193511 7.451388 0.000000
      CHANNELS 3 Yrotation Xrotation Zrotation
      JOINT LeftShoulder
      {
       OFFSET 15.792092 0.000000 0.000000
       CHANNELS 3 Yrotation Xrotation Zrotation
       JOINT LeftElbow
       {
        OFFSET 31.151839 0.000000 0.000000
        CHANNELS 3 Yrotation Xrotation Zrotation
        JOINT LeftWrist
        {
         OFFSET 25.536298 0.000000 0.002321
         CHANNELS 3 Yrotation Xrotation Zrotation
         End Site
         {
          OFFSET 19.133213 0.000000 0.000000
         }
        }
       }
      }
     }
    }
   }
  }
 }
 JOINT RightHip
 {
  OFFSET -10.745749 0.139252 0.014209
  CHANNELS 3 Yrotation Xrotation Zrotation
  JOINT RightKnee
  {
   OFFSET 0.000000 -43.743899 -0.006071
   CHANNELS 3 Yrotation Xrotation Zrotation
   JOINT RightAnkle
   {
    OFFSET 0.000000 -43.214199 0.089931
    CHANNELS 3 Yrotation Xrotation Zrotation
    JOINT RightToe
    {
     OFFSET 0.000000 -9.699830 19.151588
     CHANNELS 3 Yrotation Xrotation Zrotation
     End Site
     {
      OFFSET 0.000000 -1.292898 4.893873
     }
    }
   }
  }
 }
 JOINT LeftHip
 {
  OFFSET 10.745749 0.139252 0.014209
  CHANNELS 3 Yrotation Xrotation Zrotation
  JOINT LeftKnee
  {
   OFFSET 0.000000 -43.743899 -0.006071
   CHANNELS 3 Yrotation Xrotation Zrotation
   JOINT LeftAnkle
   {
    OFFSET 0.000000 -43.214199 0.089931
    CHANNELS 3 Yrotation Xrotation Zrotation
    JOINT LeftToe
    {
     OFFSET 0.000000 -9.699830 19.151588
     CHANNELS 3 Yrotation Xrotation Zrotation
     End Site
     {
      OFFSET 0.000000 -1.292898 4.893873
     }
    }
   }
  }
 }
}
MOTION
Frames: 12
Frame Time: 0.016667
18.849908 100.811707 -166.116341 38.881996 -11.199455 -1.602954 -3.568403 7.199418 1.477830 -1.605741 3.187931 0.710808 -1.605771 3.187777 0.710767 -1.207751 2.388930 0.541313 -6.863048 16.590848 2.423648 -13.572053 -4.787926 6.891117 10.103099 8.339986 10.623137 -2.605245 -3.611153 74.609747 1.383320 3.004764 -2.112915 12.653956 -3.935775 -14.483308 -8.002932 15.707499 -12.602366 -16.425628 -14.080049 -59.473107 -75.162068 13.604637 -0.159047 4.279552 -11.522018 24.152361 -0.349613 -15.411874 -4.216755 5.786756 36.115402 1.362615 10.737618 4.361395 17.268760 -0.000000 -0.000000 -0.000000 8.256929 -5.953929 7.485235 -2.560883 20.120701 -0.267210 -7.509072 3.682054 -17.946404 0.000000 0.000000 0.000000
18.178664 99.323267 -163.901789 36.704733 -11.554861 -1.599014 -2.792934 7.396261 1.647971 -1.265009 3.276887 0.775350 -1.265052 3.276741 0.775318 -0.952725 2.455915 0.588115 -6.953627 16.640648 2.277598 -13.683706 -4.704900 6.646025 9.766528 7.906884 10.506112 -1.650464 -3.811005 74.375217 0.914272 1.455751 -2.396231 12.580334 -3.860012 -14.842048 -8.153063 14.427563 -12.584453 -16.615164 -13.559920 -59.377890 -74.004207 13.886447 0.362000 3.512012 -12.221509 24.513601 -0.296768 -16.035263 -5.674256 5.213059 35.915593 0.262633 7.114225 3.143461 13.144535 -0.000000 -0.000000 0.000000 8.719178 -7.440518 7.710779 -4.582590 25.346375 0.256101 -3.238142 1.073651 -14.860382 0.000000 0.000000 -0.000000
17.408947 97.860559 -161.736800 34.586511 -11.872230 -1.512392 -2.174629 7.612615 1.775116 -0.993482 3.375052 0.822890 -0.993482 3.375052 0.822890 -0.749446 2.529965 0.622483 -6.993591 16.607467 2.134251 -13.711947 -4.781099 6.399294 9.521825 7.353230 10.419216 -0.560973 -4.106082 73.995347 0.513873 0.022682 -2.608845 12.485947 -3.835159 -15.334101 -8.124241 12.809157 -12.543527 -16.652737 -12.797493 -59.591029 -70.525764 14.084405 0.516578 2.547843 -12.320170 24.910488 -0.171013 -16.632269 -7.215741 4.596618 35.188971 -0.695323 3.517861 2.500163 9.233176 0.000000 -0.000000 0.000000 9.153545 -8.326410 8.352328 -5.764309 29.662628 0.503468 -0.069161 -2.013371 -12.893246 0.000000 0.000000 0.000000
16.494851 96.448625 -159.684325 32.579706 -12.130685 -1.327682 -1.794298 7.932513 1.858213 -0.827105 3.518366 0.854557 -0.826962 3.518314 0.854530 -0.624858 2.637536 0.645436 -6.961650 16.388277 1.997476 -13.628494 -5.207944 6.163396 9.462401 6.620180 10.396430 1.043021 -4.585735 73.325401 -0.048583 -1.379406 -2.738790 12.352896 -3.898335 -16.075240 -7.729569 10.510467 -12.436972 -16.242283 -11.733647 -60.448869 -64.204382 13.994991 0.018495 1.383620 -11.392027 25.635322 -0.055934 -17.238702 -8.837147 4.245878 33.820670 -1.293845 -0.153880 2.726726 5.219367 0.000000 -0.000000 -0.000000 9.307339 -8.190949 9.602536 -5.121806 32.260751 0.780532 0.975123 -5.885219 -12.506896 -0.000000 0.000000 0.000000
15.482281 95.062424 -157.681412 30.632196 -12.342955 -1.066361 -1.572456 8.273797 1.889348 -0.730439 3.670609 0.865501 -0.730241 3.670432 0.865450 -0.552567 2.751670 0.653215 -6.875329 16.085503 1.870110 -13.454788 -5.793799 5.935465 9.500585 5.770049 10.417625 2.801328 -5.139770 72.516479 -0.552484 -2.664621 -2.808092 12.208509 -4.003220 -16.953305 -7.147522 7.878740 -12.289130 -15.694575 -10.433037 -61.602823 -55.579330 13.860994 -0.867691 0.103973 -9.887447 26.538333 0.134897 -17.819158 -10.549208 3.826882 31.962209 -1.675895 -3.816405 3.518652 1.019231 0.000000 0.000000 0.000000 9.481760 -7.410932 11.196369 -3.527188 33.949968 1.191744 0.958916 -10.282620 -12.964613 -0.000000 -0.000000 0.000000
14.371271 93.902384 -155.602119 28.901197 -12.425866 -0.824265 -1.567379 8.470698 1.823801 -0.728025 3.758586 0.836977 -0.728025 3.758586 0.836977 -0.550978 2.817954 0.631992 -6.695890 15.853838 1.801993 -13.120514 -6.251630 5.774267 9.545068 5.177403 10.445802 3.974526 -5.894158 71.938620 -0.128788 -3.531205 -2.922373 12.045173 -4.048478 -17.702049 -6.798890 6.112589 -12.229236 -15.577400 -9.269862 -62.298301 -45.889154 14.437390 -1.784096 -0.994331 -8.331175 26.917071 0.989130 -18.265661 -12.275914 2.325305 30.150840 -2.052632 -7.064110 4.670989 -2.296586 0.000000 0.000000 0.000000 9.889558 -6.637895 12.763482 -2.398291 35.134531 1.609163 1.017642 -13.678298 -13.711591 -0.000000 0.000000 0.000000
13.182257 93.045573 -153.467966 27.565259 -12.253052 -0.644679 -1.903055 8.432271 1.655865 -0.873791 3.741318 0.768655 -0.873914 3.741638 0.768738 -0.660000 2.805372 0.581770 -6.384332 15.713490 1.826958 -12.565012 -6.542738 5.727188 9.553273 4.973106 10.441885 4.083956 -7.085724 71.759446 1.646019 -4.064514 -3.019735 11.827054 -3.869317 -18.212668 -6.933075 5.859802 -12.382608 -16.125463 -8.718121 -61.914461 -34.868430 16.454697 -3.225658 -1.890398 -6.368303 26.414454 3.193243 -18.441756 -14.283768 -1.445530 28.237527 -2.617607 -10.199181 6.947234 -4.614978 0.000000 0.000000 0.000000 10.692420 -6.235969 14.116611 -2.302214 35.835151 2.033885 1.419015 -15.645877 -14.637882 0.007450 0.471198 0.162253
11.894801 92.414922 -151.257432 26.450401 -11.956837 -0.497810 -2.454704 8.243024 1.408962 -1.113171 3.656442 0.668338 -1.113187 3.656703 0.668417 -0.838627 2.741516 0.507873 -5.982110 15.648904 1.908791 -11.853275 -6.694721 5.743457 9.558881 5.024530 10.423024 3.578520 -8.501052 71.859080 4.342036 -4.190802 -3.001428 11.595505 -3.616369 -18.590608 -7.319638 6.453501 -12.685193 -17.062946 -8.243636 -61.087312 -22.862437 18.999547 -4.803492 -2.590373 -4.038981 25.694992 6.035941 -18.379534 -16.329332 -6.256975 26.466075 -3.153196 -13.110517 9.870639 -6.286783 0.000000 0.000000 0.000000 11.721390 -5.885945 15.461389 -2.637730 35.992697 2.482755 1.790376 -16.601717 -15.826040 0.009524 0.942275 0.325013
10.447619 91.979653 -148.780020 25.183770 -11.845503 -0.365385 -2.906158 7.997629 1.081719 -1.307069 3.547698 0.529752 -1.307069 3.547698 0.529752 -0.983068 2.659658 0.404785 -5.575183 15.758246 1.982442 -11.111177 -6.525781 5.722257 9.578599 5.310078 10.422433 3.098560 -9.614878 72.127097 7.563925 -3.375178 -2.900589 11.440243 -3.661172 -18.905968 -7.655783 7.126914 -12.950394 -18.192115 -6.815394 -61.073484 -11.917624 19.651313 -5.159411 -3.011559 -2.492257 25.092971 8.022133 -18.309400 -17.562259 -9.500657 25.891444 -3.416840 -14.686093 11.759599 -6.285853 0.000000 -0.000000 0.000000 12.666819 -5.221392 17.052579 -3.100547 35.862429 2.815450 2.170257 -16.243664 -17.040354 0.000000 -0.000000 0.000000
8.800368 91.769599 -145.876277 23.568632 -12.131605 -0.264057 -3.165328 7.741374 0.649690 -1.414520 3.436183 0.340954 -1.414620 3.436199 0.340942 -1.062635 2.576381 0.263590 -5.171329 16.133330 2.036942 -10.344652 -5.866394 5.640419 9.659584 5.935575 10.465351 2.877631 -10.265932 72.574829 11.291195 -0.982749 -2.748780 11.412387 -4.396655 -19.170480 -7.896918 7.742405 -13.085707 -20.837274 -3.652147 -62.646529 -2.098261 15.315483 -3.800734 -3.201961 -2.571516 24.196617 8.608599 -18.329497 -17.585803 -9.972642 27.266542 -3.415087 -13.785729 12.249912 -2.717497 0.000000 -0.000000 0.000000 13.715534 -4.031056 19.209920 -3.924643 35.401446 2.903203 2.344611 -14.333122 -18.604334 0.023105 -3.229335 -0.792686
6.993390 91.754926 -142.705655 21.795752 -12.602289 -0.155994 -3.317614 7.418453 0.139014 -1.473633 3.296208 0.114783 -1.473697 3.296298 0.114803 -1.105631 2.472017 0.094059 -4.760107 16.676432 2.072164 -9.549800 -4.895925 5.510185 9.765539 6.796159 10.499922 2.678130 -10.598432 73.140883 15.614282 2.281048 -2.232371 11.436732 -5.435290 -19.459954 -8.078943 8.450737 -13.187238 -23.822389 0.189026 -65.387075 5.891887 8.303439 -3.055907 -3.326460 -3.399293 22.797571 8.342185 -18.372558 -16.785800 -8.887274 29.738436 -3.264146 -11.258884 11.730673 2.869144 0.000000 0.000000 0.000000 14.722529 -2.502723 21.604657 -4.827826 34.631248 2.918008 2.252161 -11.153770 -20.182123 0.142395 -7.871543 -2.080737
5.086426 91.815357 -139.556008 20.074272 -12.922073 0.050691 -3.315621 6.976580 -0.382087 -1.465040 3.103369 -0.119555 -1.465040 3.103369 -0.119555 -1.097904 2.327829 -0.082199 -4.399435 17.196364 2.043520 -8.834997 -3.966448 5.288846 9.783485 7.554897 10.465741 2.464696 -10.573837 73.539791 20.314264 4.899225 -1.131700 11.405643 -5.963875 -19.866125 -8.005297 8.933411 -13.252061 -23.145765 3.190666 -68.229977 10.380765 4.647193 -3.060322 -3.536739 -3.764807 21.435682 7.387630 -18.500572 -15.479461 -7.298952 31.907551 -2.960733 -9.153457 10.074950 6.706269 0.000000 0.000000 0.000000 14.870915 -0.808427 23.480143 -4.805399 33.977143 3.100726 2.280972 -7.115079 -20.566962 0.500174 -12.696547 -4.493510
